<svg xmlns="http://www.w3.org/2000/svg" viewBox="0 0 40 56">
  <rect x="15" y="1.5" width="10" height="8" rx="2" fill="#A9713C"/>
  <rect x="15" y="1.5" width="10" height="3" rx="1.5" fill="#C08A4F"/>
  <path d="M16.5 9.5h7v6.2c0 1.4.5 2.3 1.6 3.4 2.9 2.9 4.4 6 4.4 10.3v19.4c0 3.4-2.4 5.7-5.8 5.7H16.3c-3.4 0-5.8-2.3-5.8-5.7V29.4c0-4.3 1.5-7.4 4.4-10.3 1.1-1.1 1.6-2 1.6-3.4V9.5Z"
        fill="#1F6F5C" fill-opacity=".2" stroke="#1F6F5C" stroke-width="2.1" stroke-linejoin="round"/>
  <rect x="14.2" y="27" width="11.6" height="17" rx="2.2" fill="#F4E9D2" stroke="#8C6A44" stroke-width="1.4"/>
  <path d="M17 31.5h6M17 35h6" stroke="#B79B76" stroke-width="1.3" stroke-linecap="round"/>
  <path d="m18.4 38.4 3.2 3.2m0-3.2-3.2 3.2" stroke="#C42B1F" stroke-width="1.8" stroke-linecap="round"/>
</svg>
